<mxfile host="Electron" agent="Mozilla/5.0 (Macintosh; Intel Mac OS X 10_15_7) AppleWebKit/537.36 (KHTML, like Gecko) draw.io/24.7.8 Chrome/128.0.6613.36 Electron/32.0.1 Safari/537.36" version="24.7.8">
  <diagram name="Page-1" id="-4UtWJJOfgUsc_9yNbab">
    <mxGraphModel dx="2188" dy="686" grid="1" gridSize="10" guides="1" tooltips="1" connect="1" arrows="1" fold="1" page="1" pageScale="1" pageWidth="850" pageHeight="1100" math="0" shadow="0">
      <root>
        <mxCell id="0" />
        <mxCell id="1" parent="0" />
        <mxCell id="wjsZOd1Ye_hqDT3On4Ij-1" value="User" style="shape=table;startSize=30;container=1;collapsible=0;childLayout=tableLayout;" parent="1" vertex="1">
          <mxGeometry x="-390" y="60" width="340" height="70" as="geometry" />
        </mxCell>
        <mxCell id="wjsZOd1Ye_hqDT3On4Ij-2" value="" style="shape=tableRow;horizontal=0;startSize=0;swimlaneHead=0;swimlaneBody=0;strokeColor=inherit;top=0;left=0;bottom=0;right=0;collapsible=0;dropTarget=0;fillColor=none;points=[[0,0.5],[1,0.5]];portConstraint=eastwest;" parent="wjsZOd1Ye_hqDT3On4Ij-1" vertex="1">
          <mxGeometry y="30" width="340" height="40" as="geometry" />
        </mxCell>
        <mxCell id="wjsZOd1Ye_hqDT3On4Ij-3" value="&lt;u&gt;Username&lt;/u&gt;" style="shape=partialRectangle;html=1;whiteSpace=wrap;connectable=0;strokeColor=inherit;overflow=hidden;fillColor=none;top=0;left=0;bottom=0;right=0;pointerEvents=1;" parent="wjsZOd1Ye_hqDT3On4Ij-2" vertex="1">
          <mxGeometry width="70" height="40" as="geometry">
            <mxRectangle width="70" height="40" as="alternateBounds" />
          </mxGeometry>
        </mxCell>
        <mxCell id="wjsZOd1Ye_hqDT3On4Ij-4" value="Password" style="shape=partialRectangle;html=1;whiteSpace=wrap;connectable=0;strokeColor=inherit;overflow=hidden;fillColor=none;top=0;left=0;bottom=0;right=0;pointerEvents=1;" parent="wjsZOd1Ye_hqDT3On4Ij-2" vertex="1">
          <mxGeometry x="70" width="70" height="40" as="geometry">
            <mxRectangle width="70" height="40" as="alternateBounds" />
          </mxGeometry>
        </mxCell>
        <mxCell id="wjsZOd1Ye_hqDT3On4Ij-5" value="Firstname" style="shape=partialRectangle;html=1;whiteSpace=wrap;connectable=0;strokeColor=inherit;overflow=hidden;fillColor=none;top=0;left=0;bottom=0;right=0;pointerEvents=1;" parent="wjsZOd1Ye_hqDT3On4Ij-2" vertex="1">
          <mxGeometry x="140" width="60" height="40" as="geometry">
            <mxRectangle width="60" height="40" as="alternateBounds" />
          </mxGeometry>
        </mxCell>
        <mxCell id="wjsZOd1Ye_hqDT3On4Ij-6" value="Lastname" style="shape=partialRectangle;html=1;whiteSpace=wrap;connectable=0;strokeColor=inherit;overflow=hidden;fillColor=none;top=0;left=0;bottom=0;right=0;pointerEvents=1;" parent="wjsZOd1Ye_hqDT3On4Ij-2" vertex="1">
          <mxGeometry x="200" width="70" height="40" as="geometry">
            <mxRectangle width="70" height="40" as="alternateBounds" />
          </mxGeometry>
        </mxCell>
        <mxCell id="wjsZOd1Ye_hqDT3On4Ij-7" value="Usertype" style="shape=partialRectangle;html=1;whiteSpace=wrap;connectable=0;strokeColor=inherit;overflow=hidden;fillColor=none;top=0;left=0;bottom=0;right=0;pointerEvents=1;" parent="wjsZOd1Ye_hqDT3On4Ij-2" vertex="1">
          <mxGeometry x="270" width="70" height="40" as="geometry">
            <mxRectangle width="70" height="40" as="alternateBounds" />
          </mxGeometry>
        </mxCell>
        <mxCell id="wjsZOd1Ye_hqDT3On4Ij-8" value="VehicleSeller" style="shape=table;startSize=30;container=1;collapsible=0;childLayout=tableLayout;" parent="1" vertex="1">
          <mxGeometry x="-390" y="170" width="340" height="110" as="geometry" />
        </mxCell>
        <mxCell id="wjsZOd1Ye_hqDT3On4Ij-9" value="" style="shape=tableRow;horizontal=0;startSize=0;swimlaneHead=0;swimlaneBody=0;strokeColor=inherit;top=0;left=0;bottom=0;right=0;collapsible=0;dropTarget=0;fillColor=none;points=[[0,0.5],[1,0.5]];portConstraint=eastwest;" parent="wjsZOd1Ye_hqDT3On4Ij-8" vertex="1">
          <mxGeometry y="30" width="340" height="40" as="geometry" />
        </mxCell>
        <mxCell id="wjsZOd1Ye_hqDT3On4Ij-10" value="&lt;u&gt;Username&lt;/u&gt;" style="shape=partialRectangle;html=1;whiteSpace=wrap;connectable=0;strokeColor=inherit;overflow=hidden;fillColor=none;top=0;left=0;bottom=0;right=0;pointerEvents=1;" parent="wjsZOd1Ye_hqDT3On4Ij-9" vertex="1">
          <mxGeometry width="340" height="40" as="geometry">
            <mxRectangle width="340" height="40" as="alternateBounds" />
          </mxGeometry>
        </mxCell>
        <mxCell id="fB4wuoA-GwbCkH97Dtny-259" value="" style="shape=tableRow;horizontal=0;startSize=0;swimlaneHead=0;swimlaneBody=0;strokeColor=inherit;top=0;left=0;bottom=0;right=0;collapsible=0;dropTarget=0;fillColor=none;points=[[0,0.5],[1,0.5]];portConstraint=eastwest;" vertex="1" parent="wjsZOd1Ye_hqDT3On4Ij-8">
          <mxGeometry y="70" width="340" height="40" as="geometry" />
        </mxCell>
        <mxCell id="fB4wuoA-GwbCkH97Dtny-260" value="&lt;u&gt;Username&lt;/u&gt;" style="shape=partialRectangle;html=1;whiteSpace=wrap;connectable=0;strokeColor=inherit;overflow=hidden;fillColor=none;top=0;left=0;bottom=0;right=0;pointerEvents=1;" vertex="1" parent="fB4wuoA-GwbCkH97Dtny-259">
          <mxGeometry width="340" height="40" as="geometry">
            <mxRectangle width="340" height="40" as="alternateBounds" />
          </mxGeometry>
        </mxCell>
        <mxCell id="wjsZOd1Ye_hqDT3On4Ij-11" value="" style="endArrow=classic;html=1;rounded=0;exitX=0;exitY=0.5;exitDx=0;exitDy=0;entryX=0;entryY=0.5;entryDx=0;entryDy=0;" parent="1" source="wjsZOd1Ye_hqDT3On4Ij-9" target="wjsZOd1Ye_hqDT3On4Ij-2" edge="1">
          <mxGeometry width="50" height="50" relative="1" as="geometry">
            <mxPoint x="80" y="410" as="sourcePoint" />
            <mxPoint x="-390" y="110" as="targetPoint" />
            <Array as="points">
              <mxPoint x="-440" y="220" />
              <mxPoint x="-440" y="110" />
            </Array>
          </mxGeometry>
        </mxCell>
        <mxCell id="wjsZOd1Ye_hqDT3On4Ij-12" value="Vehicle Seller" style="shape=table;startSize=30;container=1;collapsible=0;childLayout=tableLayout;" parent="1" vertex="1">
          <mxGeometry x="-390" y="250" width="340" height="70" as="geometry" />
        </mxCell>
        <mxCell id="wjsZOd1Ye_hqDT3On4Ij-13" value="" style="shape=tableRow;horizontal=0;startSize=0;swimlaneHead=0;swimlaneBody=0;strokeColor=inherit;top=0;left=0;bottom=0;right=0;collapsible=0;dropTarget=0;fillColor=none;points=[[0,0.5],[1,0.5]];portConstraint=eastwest;" parent="wjsZOd1Ye_hqDT3On4Ij-12" vertex="1">
          <mxGeometry y="30" width="340" height="40" as="geometry" />
        </mxCell>
        <mxCell id="wjsZOd1Ye_hqDT3On4Ij-14" value="&lt;u&gt;Username&lt;/u&gt;" style="shape=partialRectangle;html=1;whiteSpace=wrap;connectable=0;strokeColor=inherit;overflow=hidden;fillColor=none;top=0;left=0;bottom=0;right=0;pointerEvents=1;" parent="wjsZOd1Ye_hqDT3On4Ij-13" vertex="1">
          <mxGeometry width="340" height="40" as="geometry">
            <mxRectangle width="340" height="40" as="alternateBounds" />
          </mxGeometry>
        </mxCell>
        <mxCell id="fB4wuoA-GwbCkH97Dtny-1" value="" style="endArrow=classic;html=1;rounded=0;exitX=0;exitY=0.5;exitDx=0;exitDy=0;entryX=0;entryY=0.5;entryDx=0;entryDy=0;" edge="1" parent="1" source="wjsZOd1Ye_hqDT3On4Ij-13" target="wjsZOd1Ye_hqDT3On4Ij-2">
          <mxGeometry width="50" height="50" relative="1" as="geometry">
            <mxPoint x="-375" y="280" as="sourcePoint" />
            <mxPoint x="-350" y="130" as="targetPoint" />
            <Array as="points">
              <mxPoint x="-460" y="300" />
              <mxPoint x="-460" y="220" />
              <mxPoint x="-460" y="160" />
              <mxPoint x="-460" y="110" />
              <mxPoint x="-410" y="110" />
            </Array>
          </mxGeometry>
        </mxCell>
        <mxCell id="fB4wuoA-GwbCkH97Dtny-161" value="VehicleColors" style="shape=table;startSize=30;container=1;collapsible=0;childLayout=tableLayout;" vertex="1" parent="1">
          <mxGeometry x="-575" y="515" width="120" height="70" as="geometry" />
        </mxCell>
        <mxCell id="fB4wuoA-GwbCkH97Dtny-162" value="" style="shape=tableRow;horizontal=0;startSize=0;swimlaneHead=0;swimlaneBody=0;strokeColor=inherit;top=0;left=0;bottom=0;right=0;collapsible=0;dropTarget=0;fillColor=none;points=[[0,0.5],[1,0.5]];portConstraint=eastwest;" vertex="1" parent="fB4wuoA-GwbCkH97Dtny-161">
          <mxGeometry y="30" width="120" height="40" as="geometry" />
        </mxCell>
        <mxCell id="fB4wuoA-GwbCkH97Dtny-163" value="&lt;u&gt;VIN&lt;/u&gt;" style="shape=partialRectangle;html=1;whiteSpace=wrap;connectable=0;strokeColor=inherit;overflow=hidden;fillColor=none;top=0;left=0;bottom=0;right=0;pointerEvents=1;" vertex="1" parent="fB4wuoA-GwbCkH97Dtny-162">
          <mxGeometry width="60" height="40" as="geometry">
            <mxRectangle width="60" height="40" as="alternateBounds" />
          </mxGeometry>
        </mxCell>
        <mxCell id="fB4wuoA-GwbCkH97Dtny-164" value="&lt;u&gt;Color&lt;/u&gt;" style="shape=partialRectangle;html=1;whiteSpace=wrap;connectable=0;strokeColor=inherit;overflow=hidden;fillColor=none;top=0;left=0;bottom=0;right=0;pointerEvents=1;" vertex="1" parent="fB4wuoA-GwbCkH97Dtny-162">
          <mxGeometry x="60" width="60" height="40" as="geometry">
            <mxRectangle width="60" height="40" as="alternateBounds" />
          </mxGeometry>
        </mxCell>
        <mxCell id="fB4wuoA-GwbCkH97Dtny-189" value="Customer" style="shape=table;startSize=30;container=1;collapsible=0;childLayout=tableLayout;" vertex="1" parent="1">
          <mxGeometry x="-575" y="650" width="375" height="70" as="geometry" />
        </mxCell>
        <mxCell id="fB4wuoA-GwbCkH97Dtny-190" value="" style="shape=tableRow;horizontal=0;startSize=0;swimlaneHead=0;swimlaneBody=0;strokeColor=inherit;top=0;left=0;bottom=0;right=0;collapsible=0;dropTarget=0;fillColor=none;points=[[0,0.5],[1,0.5]];portConstraint=eastwest;" vertex="1" parent="fB4wuoA-GwbCkH97Dtny-189">
          <mxGeometry y="30" width="375" height="40" as="geometry" />
        </mxCell>
        <mxCell id="fB4wuoA-GwbCkH97Dtny-191" value="&lt;u&gt;Email&lt;/u&gt;" style="shape=partialRectangle;html=1;whiteSpace=wrap;connectable=0;strokeColor=inherit;overflow=hidden;fillColor=none;top=0;left=0;bottom=0;right=0;pointerEvents=1;" vertex="1" parent="fB4wuoA-GwbCkH97Dtny-190">
          <mxGeometry width="60" height="40" as="geometry">
            <mxRectangle width="60" height="40" as="alternateBounds" />
          </mxGeometry>
        </mxCell>
        <mxCell id="fB4wuoA-GwbCkH97Dtny-192" value="PhoneNumber" style="shape=partialRectangle;html=1;whiteSpace=wrap;connectable=0;strokeColor=inherit;overflow=hidden;fillColor=none;top=0;left=0;bottom=0;right=0;pointerEvents=1;" vertex="1" parent="fB4wuoA-GwbCkH97Dtny-190">
          <mxGeometry x="60" width="95" height="40" as="geometry">
            <mxRectangle width="95" height="40" as="alternateBounds" />
          </mxGeometry>
        </mxCell>
        <mxCell id="fB4wuoA-GwbCkH97Dtny-193" value="Street" style="shape=partialRectangle;html=1;whiteSpace=wrap;connectable=0;strokeColor=inherit;overflow=hidden;fillColor=none;top=0;left=0;bottom=0;right=0;pointerEvents=1;" vertex="1" parent="fB4wuoA-GwbCkH97Dtny-190">
          <mxGeometry x="155" width="60" height="40" as="geometry">
            <mxRectangle width="60" height="40" as="alternateBounds" />
          </mxGeometry>
        </mxCell>
        <mxCell id="fB4wuoA-GwbCkH97Dtny-194" value="City" style="shape=partialRectangle;html=1;whiteSpace=wrap;connectable=0;strokeColor=inherit;overflow=hidden;fillColor=none;top=0;left=0;bottom=0;right=0;pointerEvents=1;" vertex="1" parent="fB4wuoA-GwbCkH97Dtny-190">
          <mxGeometry x="215" width="40" height="40" as="geometry">
            <mxRectangle width="40" height="40" as="alternateBounds" />
          </mxGeometry>
        </mxCell>
        <mxCell id="fB4wuoA-GwbCkH97Dtny-195" value="State" style="shape=partialRectangle;html=1;whiteSpace=wrap;connectable=0;strokeColor=inherit;overflow=hidden;fillColor=none;top=0;left=0;bottom=0;right=0;pointerEvents=1;" vertex="1" parent="fB4wuoA-GwbCkH97Dtny-190">
          <mxGeometry x="255" width="45" height="40" as="geometry">
            <mxRectangle width="45" height="40" as="alternateBounds" />
          </mxGeometry>
        </mxCell>
        <mxCell id="fB4wuoA-GwbCkH97Dtny-196" value="PostalCode" style="shape=partialRectangle;html=1;whiteSpace=wrap;connectable=0;strokeColor=inherit;overflow=hidden;fillColor=none;top=0;left=0;bottom=0;right=0;pointerEvents=1;" vertex="1" parent="fB4wuoA-GwbCkH97Dtny-190">
          <mxGeometry x="300" width="75" height="40" as="geometry">
            <mxRectangle width="75" height="40" as="alternateBounds" />
          </mxGeometry>
        </mxCell>
        <mxCell id="fB4wuoA-GwbCkH97Dtny-197" value="Business" style="shape=table;startSize=30;container=1;collapsible=0;childLayout=tableLayout;" vertex="1" parent="1">
          <mxGeometry x="-575" y="810" width="425" height="70" as="geometry" />
        </mxCell>
        <mxCell id="fB4wuoA-GwbCkH97Dtny-198" value="" style="shape=tableRow;horizontal=0;startSize=0;swimlaneHead=0;swimlaneBody=0;strokeColor=inherit;top=0;left=0;bottom=0;right=0;collapsible=0;dropTarget=0;fillColor=none;points=[[0,0.5],[1,0.5]];portConstraint=eastwest;" vertex="1" parent="fB4wuoA-GwbCkH97Dtny-197">
          <mxGeometry y="30" width="425" height="40" as="geometry" />
        </mxCell>
        <mxCell id="fB4wuoA-GwbCkH97Dtny-199" value="&lt;u&gt;TIN&lt;/u&gt;" style="shape=partialRectangle;html=1;whiteSpace=wrap;connectable=0;strokeColor=inherit;overflow=hidden;fillColor=none;top=0;left=0;bottom=0;right=0;pointerEvents=1;" vertex="1" parent="fB4wuoA-GwbCkH97Dtny-198">
          <mxGeometry width="60" height="40" as="geometry">
            <mxRectangle width="60" height="40" as="alternateBounds" />
          </mxGeometry>
        </mxCell>
        <mxCell id="fB4wuoA-GwbCkH97Dtny-200" value="&lt;u&gt;Email&lt;/u&gt;" style="shape=partialRectangle;html=1;whiteSpace=wrap;connectable=0;strokeColor=inherit;overflow=hidden;fillColor=none;top=0;left=0;bottom=0;right=0;pointerEvents=1;" vertex="1" parent="fB4wuoA-GwbCkH97Dtny-198">
          <mxGeometry x="60" width="65" height="40" as="geometry">
            <mxRectangle width="65" height="40" as="alternateBounds" />
          </mxGeometry>
        </mxCell>
        <mxCell id="fB4wuoA-GwbCkH97Dtny-201" value="FirstName" style="shape=partialRectangle;html=1;whiteSpace=wrap;connectable=0;strokeColor=inherit;overflow=hidden;fillColor=none;top=0;left=0;bottom=0;right=0;pointerEvents=1;" vertex="1" parent="fB4wuoA-GwbCkH97Dtny-198">
          <mxGeometry x="125" width="80" height="40" as="geometry">
            <mxRectangle width="80" height="40" as="alternateBounds" />
          </mxGeometry>
        </mxCell>
        <mxCell id="fB4wuoA-GwbCkH97Dtny-202" value="LastName" style="shape=partialRectangle;html=1;whiteSpace=wrap;connectable=0;strokeColor=inherit;overflow=hidden;fillColor=none;top=0;left=0;bottom=0;right=0;pointerEvents=1;" vertex="1" parent="fB4wuoA-GwbCkH97Dtny-198">
          <mxGeometry x="205" width="70" height="40" as="geometry">
            <mxRectangle width="70" height="40" as="alternateBounds" />
          </mxGeometry>
        </mxCell>
        <mxCell id="fB4wuoA-GwbCkH97Dtny-203" value="BusinessName" style="shape=partialRectangle;html=1;whiteSpace=wrap;connectable=0;strokeColor=inherit;overflow=hidden;fillColor=none;top=0;left=0;bottom=0;right=0;pointerEvents=1;" vertex="1" parent="fB4wuoA-GwbCkH97Dtny-198">
          <mxGeometry x="275" width="90" height="40" as="geometry">
            <mxRectangle width="90" height="40" as="alternateBounds" />
          </mxGeometry>
        </mxCell>
        <mxCell id="fB4wuoA-GwbCkH97Dtny-204" value="Title" style="shape=partialRectangle;html=1;whiteSpace=wrap;connectable=0;strokeColor=inherit;overflow=hidden;fillColor=none;top=0;left=0;bottom=0;right=0;pointerEvents=1;" vertex="1" parent="fB4wuoA-GwbCkH97Dtny-198">
          <mxGeometry x="365" width="60" height="40" as="geometry">
            <mxRectangle width="60" height="40" as="alternateBounds" />
          </mxGeometry>
        </mxCell>
        <mxCell id="fB4wuoA-GwbCkH97Dtny-215" style="edgeStyle=orthogonalEdgeStyle;rounded=0;orthogonalLoop=1;jettySize=auto;html=1;entryX=0;entryY=0.5;entryDx=0;entryDy=0;exitX=0.218;exitY=1.03;exitDx=0;exitDy=0;exitPerimeter=0;" edge="1" parent="1" source="fB4wuoA-GwbCkH97Dtny-198" target="fB4wuoA-GwbCkH97Dtny-190">
          <mxGeometry relative="1" as="geometry">
            <mxPoint x="-580" y="1050" as="sourcePoint" />
            <Array as="points">
              <mxPoint x="-482" y="910" />
              <mxPoint x="-600" y="910" />
              <mxPoint x="-600" y="700" />
            </Array>
          </mxGeometry>
        </mxCell>
        <mxCell id="fB4wuoA-GwbCkH97Dtny-222" value="Individual" style="shape=table;startSize=30;container=1;collapsible=0;childLayout=tableLayout;" vertex="1" parent="1">
          <mxGeometry x="-575" y="940" width="255" height="70" as="geometry" />
        </mxCell>
        <mxCell id="fB4wuoA-GwbCkH97Dtny-223" value="" style="shape=tableRow;horizontal=0;startSize=0;swimlaneHead=0;swimlaneBody=0;strokeColor=inherit;top=0;left=0;bottom=0;right=0;collapsible=0;dropTarget=0;fillColor=none;points=[[0,0.5],[1,0.5]];portConstraint=eastwest;" vertex="1" parent="fB4wuoA-GwbCkH97Dtny-222">
          <mxGeometry y="30" width="255" height="40" as="geometry" />
        </mxCell>
        <mxCell id="fB4wuoA-GwbCkH97Dtny-224" value="&lt;u&gt;SSN&lt;/u&gt;" style="shape=partialRectangle;html=1;whiteSpace=wrap;connectable=0;strokeColor=inherit;overflow=hidden;fillColor=none;top=0;left=0;bottom=0;right=0;pointerEvents=1;" vertex="1" parent="fB4wuoA-GwbCkH97Dtny-223">
          <mxGeometry width="65" height="40" as="geometry">
            <mxRectangle width="65" height="40" as="alternateBounds" />
          </mxGeometry>
        </mxCell>
        <mxCell id="fB4wuoA-GwbCkH97Dtny-225" value="&lt;u&gt;Email&lt;/u&gt;" style="shape=partialRectangle;html=1;whiteSpace=wrap;connectable=0;strokeColor=inherit;overflow=hidden;fillColor=none;top=0;left=0;bottom=0;right=0;pointerEvents=1;" vertex="1" parent="fB4wuoA-GwbCkH97Dtny-223">
          <mxGeometry x="65" width="55" height="40" as="geometry">
            <mxRectangle width="55" height="40" as="alternateBounds" />
          </mxGeometry>
        </mxCell>
        <mxCell id="fB4wuoA-GwbCkH97Dtny-226" value="FirstName" style="shape=partialRectangle;html=1;whiteSpace=wrap;connectable=0;strokeColor=inherit;overflow=hidden;fillColor=none;top=0;left=0;bottom=0;right=0;pointerEvents=1;" vertex="1" parent="fB4wuoA-GwbCkH97Dtny-223">
          <mxGeometry x="120" width="65" height="40" as="geometry">
            <mxRectangle width="65" height="40" as="alternateBounds" />
          </mxGeometry>
        </mxCell>
        <mxCell id="fB4wuoA-GwbCkH97Dtny-227" value="LastName" style="shape=partialRectangle;html=1;whiteSpace=wrap;connectable=0;strokeColor=inherit;overflow=hidden;fillColor=none;top=0;left=0;bottom=0;right=0;pointerEvents=1;" vertex="1" parent="fB4wuoA-GwbCkH97Dtny-223">
          <mxGeometry x="185" width="70" height="40" as="geometry">
            <mxRectangle width="70" height="40" as="alternateBounds" />
          </mxGeometry>
        </mxCell>
        <mxCell id="fB4wuoA-GwbCkH97Dtny-228" style="edgeStyle=orthogonalEdgeStyle;rounded=0;orthogonalLoop=1;jettySize=auto;html=1;entryX=0;entryY=0.5;entryDx=0;entryDy=0;exitX=0.348;exitY=1.133;exitDx=0;exitDy=0;exitPerimeter=0;" edge="1" parent="1" source="fB4wuoA-GwbCkH97Dtny-223" target="fB4wuoA-GwbCkH97Dtny-190">
          <mxGeometry relative="1" as="geometry">
            <mxPoint x="-487" y="1131" as="sourcePoint" />
            <mxPoint x="-580" y="990" as="targetPoint" />
            <Array as="points">
              <mxPoint x="-486" y="1030" />
              <mxPoint x="-620" y="1030" />
              <mxPoint x="-620" y="700" />
            </Array>
          </mxGeometry>
        </mxCell>
        <mxCell id="fB4wuoA-GwbCkH97Dtny-229" value="PartsOrder" style="shape=table;startSize=30;container=1;collapsible=0;childLayout=tableLayout;" vertex="1" parent="1">
          <mxGeometry x="-575" y="1240" width="205" height="70" as="geometry" />
        </mxCell>
        <mxCell id="fB4wuoA-GwbCkH97Dtny-230" value="" style="shape=tableRow;horizontal=0;startSize=0;swimlaneHead=0;swimlaneBody=0;strokeColor=inherit;top=0;left=0;bottom=0;right=0;collapsible=0;dropTarget=0;fillColor=none;points=[[0,0.5],[1,0.5]];portConstraint=eastwest;" vertex="1" parent="fB4wuoA-GwbCkH97Dtny-229">
          <mxGeometry y="30" width="205" height="40" as="geometry" />
        </mxCell>
        <mxCell id="fB4wuoA-GwbCkH97Dtny-231" value="&lt;u&gt;PartsOrderNumber&lt;/u&gt;" style="shape=partialRectangle;html=1;whiteSpace=wrap;connectable=0;strokeColor=inherit;overflow=hidden;fillColor=none;top=0;left=0;bottom=0;right=0;pointerEvents=1;" vertex="1" parent="fB4wuoA-GwbCkH97Dtny-230">
          <mxGeometry width="125" height="40" as="geometry">
            <mxRectangle width="125" height="40" as="alternateBounds" />
          </mxGeometry>
        </mxCell>
        <mxCell id="fB4wuoA-GwbCkH97Dtny-232" value="&lt;u&gt;Name&lt;/u&gt;" style="shape=partialRectangle;html=1;whiteSpace=wrap;connectable=0;strokeColor=inherit;overflow=hidden;fillColor=none;top=0;left=0;bottom=0;right=0;pointerEvents=1;" vertex="1" parent="fB4wuoA-GwbCkH97Dtny-230">
          <mxGeometry x="125" width="80" height="40" as="geometry">
            <mxRectangle width="80" height="40" as="alternateBounds" />
          </mxGeometry>
        </mxCell>
        <mxCell id="fB4wuoA-GwbCkH97Dtny-233" value="Vendor" style="shape=table;startSize=30;container=1;collapsible=0;childLayout=tableLayout;" vertex="1" parent="1">
          <mxGeometry x="-575" y="1100" width="385" height="70" as="geometry" />
        </mxCell>
        <mxCell id="fB4wuoA-GwbCkH97Dtny-234" value="" style="shape=tableRow;horizontal=0;startSize=0;swimlaneHead=0;swimlaneBody=0;strokeColor=inherit;top=0;left=0;bottom=0;right=0;collapsible=0;dropTarget=0;fillColor=none;points=[[0,0.5],[1,0.5]];portConstraint=eastwest;" vertex="1" parent="fB4wuoA-GwbCkH97Dtny-233">
          <mxGeometry y="30" width="385" height="40" as="geometry" />
        </mxCell>
        <mxCell id="fB4wuoA-GwbCkH97Dtny-235" value="&lt;u&gt;Name&lt;/u&gt;" style="shape=partialRectangle;html=1;whiteSpace=wrap;connectable=0;strokeColor=inherit;overflow=hidden;fillColor=none;top=0;left=0;bottom=0;right=0;pointerEvents=1;" vertex="1" parent="fB4wuoA-GwbCkH97Dtny-234">
          <mxGeometry width="60" height="40" as="geometry">
            <mxRectangle width="60" height="40" as="alternateBounds" />
          </mxGeometry>
        </mxCell>
        <mxCell id="fB4wuoA-GwbCkH97Dtny-236" value="PhoneNumber" style="shape=partialRectangle;html=1;whiteSpace=wrap;connectable=0;strokeColor=inherit;overflow=hidden;fillColor=none;top=0;left=0;bottom=0;right=0;pointerEvents=1;" vertex="1" parent="fB4wuoA-GwbCkH97Dtny-234">
          <mxGeometry x="60" width="95" height="40" as="geometry">
            <mxRectangle width="95" height="40" as="alternateBounds" />
          </mxGeometry>
        </mxCell>
        <mxCell id="fB4wuoA-GwbCkH97Dtny-237" value="Street" style="shape=partialRectangle;html=1;whiteSpace=wrap;connectable=0;strokeColor=inherit;overflow=hidden;fillColor=none;top=0;left=0;bottom=0;right=0;pointerEvents=1;" vertex="1" parent="fB4wuoA-GwbCkH97Dtny-234">
          <mxGeometry x="155" width="50" height="40" as="geometry">
            <mxRectangle width="50" height="40" as="alternateBounds" />
          </mxGeometry>
        </mxCell>
        <mxCell id="fB4wuoA-GwbCkH97Dtny-238" value="City" style="shape=partialRectangle;html=1;whiteSpace=wrap;connectable=0;strokeColor=inherit;overflow=hidden;fillColor=none;top=0;left=0;bottom=0;right=0;pointerEvents=1;" vertex="1" parent="fB4wuoA-GwbCkH97Dtny-234">
          <mxGeometry x="205" width="50" height="40" as="geometry">
            <mxRectangle width="50" height="40" as="alternateBounds" />
          </mxGeometry>
        </mxCell>
        <mxCell id="fB4wuoA-GwbCkH97Dtny-239" value="State" style="shape=partialRectangle;html=1;whiteSpace=wrap;connectable=0;strokeColor=inherit;overflow=hidden;fillColor=none;top=0;left=0;bottom=0;right=0;pointerEvents=1;" vertex="1" parent="fB4wuoA-GwbCkH97Dtny-234">
          <mxGeometry x="255" width="45" height="40" as="geometry">
            <mxRectangle width="45" height="40" as="alternateBounds" />
          </mxGeometry>
        </mxCell>
        <mxCell id="fB4wuoA-GwbCkH97Dtny-240" value="PostalCode" style="shape=partialRectangle;html=1;whiteSpace=wrap;connectable=0;strokeColor=inherit;overflow=hidden;fillColor=none;top=0;left=0;bottom=0;right=0;pointerEvents=1;" vertex="1" parent="fB4wuoA-GwbCkH97Dtny-234">
          <mxGeometry x="300" width="85" height="40" as="geometry">
            <mxRectangle width="85" height="40" as="alternateBounds" />
          </mxGeometry>
        </mxCell>
        <mxCell id="fB4wuoA-GwbCkH97Dtny-241" style="edgeStyle=orthogonalEdgeStyle;rounded=0;orthogonalLoop=1;jettySize=auto;html=1;entryX=0;entryY=0.5;entryDx=0;entryDy=0;exitX=0.792;exitY=0.994;exitDx=0;exitDy=0;exitPerimeter=0;" edge="1" parent="1" source="fB4wuoA-GwbCkH97Dtny-230" target="fB4wuoA-GwbCkH97Dtny-234">
          <mxGeometry relative="1" as="geometry">
            <Array as="points">
              <mxPoint x="-413" y="1340" />
              <mxPoint x="-600" y="1340" />
              <mxPoint x="-600" y="1150" />
            </Array>
          </mxGeometry>
        </mxCell>
        <mxCell id="fB4wuoA-GwbCkH97Dtny-250" value="Part" style="shape=table;startSize=30;container=1;collapsible=0;childLayout=tableLayout;" vertex="1" parent="1">
          <mxGeometry x="-575" y="1390" width="475" height="70" as="geometry" />
        </mxCell>
        <mxCell id="fB4wuoA-GwbCkH97Dtny-251" value="" style="shape=tableRow;horizontal=0;startSize=0;swimlaneHead=0;swimlaneBody=0;strokeColor=inherit;top=0;left=0;bottom=0;right=0;collapsible=0;dropTarget=0;fillColor=none;points=[[0,0.5],[1,0.5]];portConstraint=eastwest;" vertex="1" parent="fB4wuoA-GwbCkH97Dtny-250">
          <mxGeometry y="30" width="475" height="40" as="geometry" />
        </mxCell>
        <mxCell id="fB4wuoA-GwbCkH97Dtny-252" value="&lt;u&gt;PartNumber&lt;/u&gt;" style="shape=partialRectangle;html=1;whiteSpace=wrap;connectable=0;strokeColor=inherit;overflow=hidden;fillColor=none;top=0;left=0;bottom=0;right=0;pointerEvents=1;" vertex="1" parent="fB4wuoA-GwbCkH97Dtny-251">
          <mxGeometry width="85" height="40" as="geometry">
            <mxRectangle width="85" height="40" as="alternateBounds" />
          </mxGeometry>
        </mxCell>
        <mxCell id="fB4wuoA-GwbCkH97Dtny-253" value="&lt;u&gt;PartsOrderNumber&lt;/u&gt;" style="shape=partialRectangle;html=1;whiteSpace=wrap;connectable=0;strokeColor=inherit;overflow=hidden;fillColor=none;top=0;left=0;bottom=0;right=0;pointerEvents=1;" vertex="1" parent="fB4wuoA-GwbCkH97Dtny-251">
          <mxGeometry x="85" width="120" height="40" as="geometry">
            <mxRectangle width="120" height="40" as="alternateBounds" />
          </mxGeometry>
        </mxCell>
        <mxCell id="fB4wuoA-GwbCkH97Dtny-254" value="UnitPrice" style="shape=partialRectangle;html=1;whiteSpace=wrap;connectable=0;strokeColor=inherit;overflow=hidden;fillColor=none;top=0;left=0;bottom=0;right=0;pointerEvents=1;" vertex="1" parent="fB4wuoA-GwbCkH97Dtny-251">
          <mxGeometry x="205" width="60" height="40" as="geometry">
            <mxRectangle width="60" height="40" as="alternateBounds" />
          </mxGeometry>
        </mxCell>
        <mxCell id="fB4wuoA-GwbCkH97Dtny-255" value="Description" style="shape=partialRectangle;html=1;whiteSpace=wrap;connectable=0;strokeColor=inherit;overflow=hidden;fillColor=none;top=0;left=0;bottom=0;right=0;pointerEvents=1;" vertex="1" parent="fB4wuoA-GwbCkH97Dtny-251">
          <mxGeometry x="265" width="80" height="40" as="geometry">
            <mxRectangle width="80" height="40" as="alternateBounds" />
          </mxGeometry>
        </mxCell>
        <mxCell id="fB4wuoA-GwbCkH97Dtny-256" value="Quantity" style="shape=partialRectangle;html=1;whiteSpace=wrap;connectable=0;strokeColor=inherit;overflow=hidden;fillColor=none;top=0;left=0;bottom=0;right=0;pointerEvents=1;" vertex="1" parent="fB4wuoA-GwbCkH97Dtny-251">
          <mxGeometry x="345" width="60" height="40" as="geometry">
            <mxRectangle width="60" height="40" as="alternateBounds" />
          </mxGeometry>
        </mxCell>
        <mxCell id="fB4wuoA-GwbCkH97Dtny-257" value="Status" style="shape=partialRectangle;html=1;whiteSpace=wrap;connectable=0;strokeColor=inherit;overflow=hidden;fillColor=none;top=0;left=0;bottom=0;right=0;pointerEvents=1;" vertex="1" parent="fB4wuoA-GwbCkH97Dtny-251">
          <mxGeometry x="405" width="70" height="40" as="geometry">
            <mxRectangle width="70" height="40" as="alternateBounds" />
          </mxGeometry>
        </mxCell>
        <mxCell id="fB4wuoA-GwbCkH97Dtny-258" style="edgeStyle=orthogonalEdgeStyle;rounded=0;orthogonalLoop=1;jettySize=auto;html=1;entryX=0;entryY=0.5;entryDx=0;entryDy=0;exitX=0.318;exitY=1.042;exitDx=0;exitDy=0;exitPerimeter=0;" edge="1" parent="1" source="fB4wuoA-GwbCkH97Dtny-251" target="fB4wuoA-GwbCkH97Dtny-230">
          <mxGeometry relative="1" as="geometry">
            <Array as="points">
              <mxPoint x="-424" y="1490" />
              <mxPoint x="-620" y="1490" />
              <mxPoint x="-620" y="1290" />
            </Array>
          </mxGeometry>
        </mxCell>
        <mxCell id="fB4wuoA-GwbCkH97Dtny-279" value="Vehicle" style="shape=table;startSize=30;container=1;collapsible=0;childLayout=tableLayout;" vertex="1" parent="1">
          <mxGeometry x="-575" y="360" width="1345.000000000001" height="70" as="geometry" />
        </mxCell>
        <mxCell id="fB4wuoA-GwbCkH97Dtny-280" value="" style="shape=tableRow;horizontal=0;startSize=0;swimlaneHead=0;swimlaneBody=0;strokeColor=inherit;top=0;left=0;bottom=0;right=0;collapsible=0;dropTarget=0;fillColor=none;points=[[0,0.5],[1,0.5]];portConstraint=eastwest;" vertex="1" parent="fB4wuoA-GwbCkH97Dtny-279">
          <mxGeometry y="30" width="1345.000000000001" height="40" as="geometry" />
        </mxCell>
        <mxCell id="fB4wuoA-GwbCkH97Dtny-281" value="&lt;u&gt;VIN&lt;/u&gt;" style="shape=partialRectangle;html=1;whiteSpace=wrap;connectable=0;strokeColor=inherit;overflow=hidden;fillColor=none;top=0;left=0;bottom=0;right=0;pointerEvents=1;" vertex="1" parent="fB4wuoA-GwbCkH97Dtny-280">
          <mxGeometry width="63" height="40" as="geometry">
            <mxRectangle width="63" height="40" as="alternateBounds" />
          </mxGeometry>
        </mxCell>
        <mxCell id="fB4wuoA-GwbCkH97Dtny-282" value="SaleDate" style="shape=partialRectangle;html=1;whiteSpace=wrap;connectable=0;strokeColor=inherit;overflow=hidden;fillColor=none;top=0;left=0;bottom=0;right=0;pointerEvents=1;" vertex="1" parent="fB4wuoA-GwbCkH97Dtny-280">
          <mxGeometry x="63" width="62" height="40" as="geometry">
            <mxRectangle width="62" height="40" as="alternateBounds" />
          </mxGeometry>
        </mxCell>
        <mxCell id="fB4wuoA-GwbCkH97Dtny-283" value="SalePrice" style="shape=partialRectangle;html=1;whiteSpace=wrap;connectable=0;strokeColor=inherit;overflow=hidden;fillColor=none;top=0;left=0;bottom=0;right=0;pointerEvents=1;" vertex="1" parent="fB4wuoA-GwbCkH97Dtny-280">
          <mxGeometry x="125" width="63" height="40" as="geometry">
            <mxRectangle width="63" height="40" as="alternateBounds" />
          </mxGeometry>
        </mxCell>
        <mxCell id="fB4wuoA-GwbCkH97Dtny-284" value="TotalPartsPrice" style="shape=partialRectangle;html=1;whiteSpace=wrap;connectable=0;strokeColor=inherit;overflow=hidden;fillColor=none;top=0;left=0;bottom=0;right=0;pointerEvents=1;" vertex="1" parent="fB4wuoA-GwbCkH97Dtny-280">
          <mxGeometry x="188" width="104" height="40" as="geometry">
            <mxRectangle width="104" height="40" as="alternateBounds" />
          </mxGeometry>
        </mxCell>
        <mxCell id="fB4wuoA-GwbCkH97Dtny-285" value="Description" style="shape=partialRectangle;html=1;whiteSpace=wrap;connectable=0;strokeColor=inherit;overflow=hidden;fillColor=none;top=0;left=0;bottom=0;right=0;pointerEvents=1;" vertex="1" parent="fB4wuoA-GwbCkH97Dtny-280">
          <mxGeometry x="292" width="84" height="40" as="geometry">
            <mxRectangle width="84" height="40" as="alternateBounds" />
          </mxGeometry>
        </mxCell>
        <mxCell id="fB4wuoA-GwbCkH97Dtny-286" value="Horesepower" style="shape=partialRectangle;html=1;whiteSpace=wrap;connectable=0;strokeColor=inherit;overflow=hidden;fillColor=none;top=0;left=0;bottom=0;right=0;pointerEvents=1;" vertex="1" parent="fB4wuoA-GwbCkH97Dtny-280">
          <mxGeometry x="376" width="94" height="40" as="geometry">
            <mxRectangle width="94" height="40" as="alternateBounds" />
          </mxGeometry>
        </mxCell>
        <mxCell id="fB4wuoA-GwbCkH97Dtny-287" value="Year" style="shape=partialRectangle;html=1;whiteSpace=wrap;connectable=0;strokeColor=inherit;overflow=hidden;fillColor=none;top=0;left=0;bottom=0;right=0;pointerEvents=1;" vertex="1" parent="fB4wuoA-GwbCkH97Dtny-280">
          <mxGeometry x="470" width="41" height="40" as="geometry">
            <mxRectangle width="41" height="40" as="alternateBounds" />
          </mxGeometry>
        </mxCell>
        <mxCell id="fB4wuoA-GwbCkH97Dtny-288" value="Model" style="shape=partialRectangle;html=1;whiteSpace=wrap;connectable=0;strokeColor=inherit;overflow=hidden;fillColor=none;top=0;left=0;bottom=0;right=0;pointerEvents=1;" vertex="1" parent="fB4wuoA-GwbCkH97Dtny-280">
          <mxGeometry x="511" width="63" height="40" as="geometry">
            <mxRectangle width="63" height="40" as="alternateBounds" />
          </mxGeometry>
        </mxCell>
        <mxCell id="fB4wuoA-GwbCkH97Dtny-289" value="Manufacturer" style="shape=partialRectangle;html=1;whiteSpace=wrap;connectable=0;strokeColor=inherit;overflow=hidden;fillColor=none;top=0;left=0;bottom=0;right=0;pointerEvents=1;" vertex="1" parent="fB4wuoA-GwbCkH97Dtny-280">
          <mxGeometry x="574" width="83" height="40" as="geometry">
            <mxRectangle width="83" height="40" as="alternateBounds" />
          </mxGeometry>
        </mxCell>
        <mxCell id="fB4wuoA-GwbCkH97Dtny-290" value="VehicleType" style="shape=partialRectangle;html=1;whiteSpace=wrap;connectable=0;strokeColor=inherit;overflow=hidden;fillColor=none;top=0;left=0;bottom=0;right=0;pointerEvents=1;" vertex="1" parent="fB4wuoA-GwbCkH97Dtny-280">
          <mxGeometry x="657" width="73" height="40" as="geometry">
            <mxRectangle width="73" height="40" as="alternateBounds" />
          </mxGeometry>
        </mxCell>
        <mxCell id="fB4wuoA-GwbCkH97Dtny-291" value="PurchasePrice" style="shape=partialRectangle;html=1;whiteSpace=wrap;connectable=0;strokeColor=inherit;overflow=hidden;fillColor=none;top=0;left=0;bottom=0;right=0;pointerEvents=1;" vertex="1" parent="fB4wuoA-GwbCkH97Dtny-280">
          <mxGeometry x="730" width="94" height="40" as="geometry">
            <mxRectangle width="94" height="40" as="alternateBounds" />
          </mxGeometry>
        </mxCell>
        <mxCell id="fB4wuoA-GwbCkH97Dtny-292" value="PurchaseDate" style="shape=partialRectangle;html=1;whiteSpace=wrap;connectable=0;strokeColor=inherit;overflow=hidden;fillColor=none;top=0;left=0;bottom=0;right=0;pointerEvents=1;" vertex="1" parent="fB4wuoA-GwbCkH97Dtny-280">
          <mxGeometry x="824" width="94" height="40" as="geometry">
            <mxRectangle width="94" height="40" as="alternateBounds" />
          </mxGeometry>
        </mxCell>
        <mxCell id="fB4wuoA-GwbCkH97Dtny-293" value="Condition" style="shape=partialRectangle;html=1;whiteSpace=wrap;connectable=0;strokeColor=inherit;overflow=hidden;fillColor=none;top=0;left=0;bottom=0;right=0;pointerEvents=1;" vertex="1" parent="fB4wuoA-GwbCkH97Dtny-280">
          <mxGeometry x="918" width="63" height="40" as="geometry">
            <mxRectangle width="63" height="40" as="alternateBounds" />
          </mxGeometry>
        </mxCell>
        <mxCell id="fB4wuoA-GwbCkH97Dtny-294" value="FuelType" style="shape=partialRectangle;html=1;whiteSpace=wrap;connectable=0;strokeColor=inherit;overflow=hidden;fillColor=none;top=0;left=0;bottom=0;right=0;pointerEvents=1;" vertex="1" parent="fB4wuoA-GwbCkH97Dtny-280">
          <mxGeometry x="981" width="62" height="40" as="geometry">
            <mxRectangle width="62" height="40" as="alternateBounds" />
          </mxGeometry>
        </mxCell>
        <mxCell id="fB4wuoA-GwbCkH97Dtny-295" value="Username(VehicleSeller)" style="shape=partialRectangle;html=1;whiteSpace=wrap;connectable=0;strokeColor=inherit;overflow=hidden;fillColor=none;top=0;left=0;bottom=0;right=0;pointerEvents=1;" vertex="1" parent="fB4wuoA-GwbCkH97Dtny-280">
          <mxGeometry x="1043" width="142" height="40" as="geometry">
            <mxRectangle width="142" height="40" as="alternateBounds" />
          </mxGeometry>
        </mxCell>
        <mxCell id="fB4wuoA-GwbCkH97Dtny-296" value="Username(VehicleBuyer)" style="shape=partialRectangle;html=1;whiteSpace=wrap;connectable=0;strokeColor=inherit;overflow=hidden;fillColor=none;top=0;left=0;bottom=0;right=0;pointerEvents=1;" vertex="1" parent="fB4wuoA-GwbCkH97Dtny-280">
          <mxGeometry x="1185" width="160" height="40" as="geometry">
            <mxRectangle width="160" height="40" as="alternateBounds" />
          </mxGeometry>
        </mxCell>
        <mxCell id="fB4wuoA-GwbCkH97Dtny-297" style="edgeStyle=orthogonalEdgeStyle;rounded=0;orthogonalLoop=1;jettySize=auto;html=1;entryX=0;entryY=0.5;entryDx=0;entryDy=0;" edge="1" parent="1" source="fB4wuoA-GwbCkH97Dtny-162" target="fB4wuoA-GwbCkH97Dtny-280">
          <mxGeometry relative="1" as="geometry">
            <Array as="points">
              <mxPoint x="-595" y="565" />
              <mxPoint x="-595" y="410" />
            </Array>
          </mxGeometry>
        </mxCell>
      </root>
    </mxGraphModel>
  </diagram>
</mxfile>
